<svg width="19" height="20" viewBox="0 0 19 20" fill="none" xmlns="http://www.w3.org/2000/svg">
<path d="M8.72212 17.5638L8.18284 16.6799C8.16246 16.6465 8.14282 16.6119 8.12399 16.5762C8.20349 16.7231 8.30256 16.8589 8.42455 16.9809C8.86607 17.4225 9.48852 17.5638 10.1663 17.5638H8.72212ZM2.76682 17.3483C2.5471 17.2528 2.3672 17.1291 2.22242 16.9843C2.07763 16.8395 1.95388 16.6596 1.85838 16.4399C1.94691 16.6398 2.06691 16.8221 2.22578 16.9809C2.38465 17.1398 2.56695 17.2598 2.76682 17.3483ZM2.22578 7.29872C2.06691 7.45759 1.94691 7.63989 1.85838 7.83976C1.95388 7.62004 2.07763 7.44014 2.22242 7.29535C2.3672 7.15057 2.5471 7.02682 2.76682 6.93131C2.56695 7.01985 2.38465 7.13985 2.22578 7.29872Z" stroke="#555B6C" stroke-width="1.16227"/>
<path d="M7.84172 4.19767V3.61654H7.9225C7.92252 3.61662 7.92255 3.61669 7.92257 3.61677C7.85698 3.86042 7.84172 4.11354 7.84172 4.39138V4.39097V4.39057V4.39016V4.38975V4.38934V4.38893V4.38853V4.38812V4.38771V4.38731V4.3869V4.38649V4.38609V4.38568V4.38527V4.38487V4.38446V4.38406V4.38365V4.38325V4.38284V4.38244V4.38203V4.38163V4.38122V4.38082V4.38041V4.38001V4.37961V4.3792V4.3788V4.3784V4.37799V4.37759V4.37719V4.37678V4.37638V4.37598V4.37558V4.37518V4.37477V4.37437V4.37397V4.37357V4.37317V4.37277V4.37237V4.37197V4.37157V4.37117V4.37077V4.37037V4.36997V4.36957V4.36917V4.36877V4.36837V4.36797V4.36757V4.36717V4.36677V4.36638V4.36598V4.36558V4.36518V4.36478V4.36439V4.36399V4.36359V4.36319V4.3628V4.3624V4.362V4.36161V4.36121V4.36081V4.36042V4.36002V4.35963V4.35923V4.35884V4.35844V4.35805V4.35765V4.35726V4.35686V4.35647V4.35607V4.35568V4.35528V4.35489V4.3545V4.3541V4.35371V4.35332V4.35292V4.35253V4.35214V4.35174V4.35135V4.35096V4.35057V4.35017V4.34978V4.34939V4.349V4.34861V4.34821V4.34782V4.34743V4.34704V4.34665V4.34626V4.34587V4.34548V4.34509V4.3447V4.34431V4.34392V4.34353V4.34314V4.34275V4.34236V4.34197V4.34158V4.34119V4.3408V4.34041V4.34002V4.33963V4.33925V4.33886V4.33847V4.33808V4.33769V4.33731V4.33692V4.33653V4.33614V4.33576V4.33537V4.33498V4.3346V4.33421V4.33382V4.33344V4.33305V4.33266V4.33228V4.33189V4.33151V4.33112V4.33073V4.33035V4.32996V4.32958V4.32919V4.32881V4.32842V4.32804V4.32765V4.32727V4.32688V4.3265V4.32612V4.32573V4.32535V4.32496V4.32458V4.3242V4.32381V4.32343V4.32305V4.32266V4.32228V4.3219V4.32152V4.32113V4.32075V4.32037V4.31999V4.3196V4.31922V4.31884V4.31846V4.31808V4.3177V4.31731V4.31693V4.31655V4.31617V4.31579V4.31541V4.31503V4.31465V4.31427V4.31389V4.31351V4.31313V4.31275V4.31237V4.31199V4.31161V4.31123V4.31085V4.31047V4.31009V4.30971V4.30933V4.30895V4.30857V4.30819V4.30781V4.30743V4.30706V4.30668V4.3063V4.30592V4.30554V4.30517V4.30479V4.30441V4.30403V4.30365V4.30328V4.3029V4.30252V4.30214V4.30177V4.30139V4.30101V4.30064V4.30026V4.29988V4.29951V4.29913V4.29875V4.29838V4.298V4.29763V4.29725V4.29687V4.2965V4.29612V4.29575V4.29537V4.295V4.29462V4.29425V4.29387V4.29349V4.29312V4.29274V4.29237V4.292V4.29162V4.29125V4.29087V4.2905V4.29012V4.28975V4.28938V4.289V4.28863V4.28825V4.28788V4.28751V4.28713V4.28676V4.28639V4.28601V4.28564V4.28527V4.28489V4.28452V4.28415V4.28377V4.2834V4.28303V4.28266V4.28228V4.28191V4.28154V4.28117V4.28079V4.28042V4.28005V4.27968V4.27931V4.27893V4.27856V4.27819V4.27782V4.27745V4.27708V4.27671V4.27633V4.27596V4.27559V4.27522V4.27485V4.27448V4.27411V4.27374V4.27337V4.273V4.27263V4.27226V4.27189V4.27151V4.27114V4.27077V4.2704V4.27003V4.26966V4.26929V4.26892V4.26855V4.26819V4.26782V4.26745V4.26708V4.26671V4.26634V4.26597V4.2656V4.26523V4.26486V4.26449V4.26412V4.26375V4.26339V4.26302V4.26265V4.26228V4.26191V4.26154V4.26117V4.2608V4.26044V4.26007V4.2597V4.25933V4.25896V4.2586V4.25823V4.25786V4.25749V4.25712V4.25676V4.25639V4.25602V4.25565V4.25529V4.25492V4.25455V4.25418V4.25382V4.25345V4.25308V4.25271V4.25235V4.25198V4.25161V4.25125V4.25088V4.25051V4.25015V4.24978V4.24941V4.24905V4.24868V4.24831V4.24795V4.24758V4.24721V4.24685V4.24648V4.24611V4.24575V4.24538V4.24501V4.24465V4.24428V4.24392V4.24355V4.24318V4.24282V4.24245V4.24209V4.24172V4.24136V4.24099V4.24062V4.24026V4.23989V4.23953V4.23916V4.2388V4.23843V4.23807V4.2377V4.23734V4.23697V4.2366V4.23624V4.23587V4.23551V4.23514V4.23478V4.23441V4.23405V4.23368V4.23332V4.23295V4.23259V4.23223V4.23186V4.2315V4.23113V4.23077V4.2304V4.23004V4.22967V4.22931V4.22894V4.22858V4.22821V4.22785V4.22749V4.22712V4.22676V4.22639V4.22603V4.22566V4.2253V4.22494V4.22457V4.22421V4.22384V4.22348V4.22312V4.22275V4.22239V4.22202V4.22166V4.2213V4.22093V4.22057V4.2202V4.21984V4.21948V4.21911V4.21875V4.21838V4.21802V4.21766V4.21729V4.21693V4.21657V4.2162V4.21584V4.21547V4.21511V4.21475V4.21438V4.21402V4.21366V4.21329V4.21293V4.21257V4.2122V4.21184V4.21148V4.21111V4.21075V4.21039V4.21002V4.20966V4.2093V4.20893V4.20857V4.20821V4.20784V4.20748V4.20712V4.20675V4.20639V4.20603V4.20566V4.2053V4.20494V4.20457V4.20421V4.20385V4.20348V4.20312V4.20276V4.20239V4.20203V4.20167V4.2013V4.20094V4.20058V4.20021V4.19985V4.19949V4.19912V4.19876V4.1984V4.19803V4.19767ZM3.96749 5.16623C3.96749 4.30941 4.66037 3.61654 5.51718 3.61654C4.66158 3.61654 3.96749 4.31063 3.96749 5.16623Z" stroke="#555B6C" stroke-width="1.16227"/>
<mask id="path-3-inside-1_79_676" fill="white">
<path d="M10.9411 11.1713C10.6234 11.1713 10.36 10.9078 10.36 10.5901V6.7159C10.36 6.39821 10.6234 6.13477 10.9411 6.13477C11.2588 6.13477 11.5223 6.39821 11.5223 6.7159V10.5901C11.5223 10.9078 11.2588 11.1713 10.9411 11.1713Z"/>
</mask>
<path d="M10.9411 10.009C11.2653 10.009 11.5223 10.2659 11.5223 10.5901H9.19772C9.19772 11.5497 9.98153 12.3335 10.9411 12.3335V10.009ZM11.5223 10.5901V6.7159H9.19772V10.5901H11.5223ZM11.5223 6.7159C11.5223 7.04012 11.2653 7.29704 10.9411 7.29704V4.9725C9.98153 4.9725 9.19772 5.75631 9.19772 6.7159H11.5223ZM10.9411 7.29704C10.6169 7.29704 10.36 7.04012 10.36 6.7159H12.6845C12.6845 5.75631 11.9007 4.9725 10.9411 4.9725V7.29704ZM10.36 6.7159V10.5901H12.6845V6.7159H10.36ZM10.36 10.5901C10.36 10.2659 10.6169 10.009 10.9411 10.009V12.3335C11.9007 12.3335 12.6845 11.5497 12.6845 10.5901H10.36Z" fill="#555B6C" mask="url(#path-3-inside-1_79_676)"/>
<mask id="path-5-inside-2_79_676" fill="white">
<path d="M14.0405 11.1713C13.7228 11.1713 13.4594 10.9078 13.4594 10.5901V6.7159C13.4594 6.39821 13.7228 6.13477 14.0405 6.13477C14.3582 6.13477 14.6216 6.39821 14.6216 6.7159V10.5901C14.6216 10.9078 14.3582 11.1713 14.0405 11.1713Z"/>
</mask>
<path d="M14.0405 10.009C14.3647 10.009 14.6216 10.2659 14.6216 10.5901H12.2971C12.2971 11.5497 13.0809 12.3335 14.0405 12.3335V10.009ZM14.6216 10.5901V6.7159H12.2971V10.5901H14.6216ZM14.6216 6.7159C14.6216 7.04012 14.3647 7.29704 14.0405 7.29704V4.9725C13.0809 4.9725 12.2971 5.75631 12.2971 6.7159H14.6216ZM14.0405 7.29704C13.7163 7.29704 13.4594 7.04012 13.4594 6.7159H15.7839C15.7839 5.75631 15.0001 4.9725 14.0405 4.9725V7.29704ZM13.4594 6.7159V10.5901H15.7839V6.7159H13.4594ZM13.4594 10.5901C13.4594 10.2659 13.7163 10.009 14.0405 10.009V12.3335C15.0001 12.3335 15.7839 11.5497 15.7839 10.5901H13.4594Z" fill="#555B6C" mask="url(#path-5-inside-2_79_676)"/>
<mask id="path-7-inside-3_79_676" fill="white">
<path d="M14.0405 18.1449H10.9411C10.6234 18.1449 10.36 17.8815 10.36 17.5638V14.4644C10.36 13.7205 10.9721 13.1084 11.716 13.1084H13.2657C14.0095 13.1084 14.6216 13.7205 14.6216 14.4644V17.5638C14.6216 17.8815 14.3582 18.1449 14.0405 18.1449ZM11.5223 16.9826H13.4594V14.4644C13.4594 14.3559 13.3741 14.2707 13.2657 14.2707H11.716C11.6075 14.2707 11.5223 14.3559 11.5223 14.4644V16.9826Z"/>
</mask>
<path d="M11.5223 16.9826H10.36V18.1449H11.5223V16.9826ZM13.4594 16.9826V18.1449H14.6216V16.9826H13.4594ZM14.0405 16.9826H10.9411V19.3072H14.0405V16.9826ZM10.9411 16.9826C11.2653 16.9826 11.5223 17.2396 11.5223 17.5638H9.19772C9.19772 18.5234 9.98153 19.3072 10.9411 19.3072V16.9826ZM11.5223 17.5638V14.4644H9.19772V17.5638H11.5223ZM11.5223 14.4644C11.5223 14.4173 11.5408 14.3694 11.5809 14.3293C11.621 14.2892 11.6689 14.2707 11.716 14.2707V11.9461C10.3302 11.9461 9.19772 13.0786 9.19772 14.4644H11.5223ZM11.716 14.2707H13.2657V11.9461H11.716V14.2707ZM13.2657 14.2707C13.3127 14.2707 13.3607 14.2892 13.4007 14.3293C13.4408 14.3694 13.4594 14.4173 13.4594 14.4644H15.7839C15.7839 13.0786 14.6514 11.9461 13.2657 11.9461V14.2707ZM13.4594 14.4644V17.5638H15.7839V14.4644H13.4594ZM13.4594 17.5638C13.4594 17.2396 13.7163 16.9826 14.0405 16.9826V19.3072C15.0001 19.3072 15.7839 18.5234 15.7839 17.5638H13.4594ZM11.5223 18.1449H13.4594V15.8204H11.5223V18.1449ZM14.6216 16.9826V14.4644H12.2971V16.9826H14.6216ZM14.6216 14.4644C14.6216 13.714 14.016 13.1084 13.2657 13.1084V15.4329C12.7322 15.4329 12.2971 14.9978 12.2971 14.4644H14.6216ZM13.2657 13.1084H11.716V15.4329H13.2657V13.1084ZM11.716 13.1084C10.9656 13.1084 10.36 13.714 10.36 14.4644H12.6845C12.6845 14.9978 12.2494 15.4329 11.716 15.4329V13.1084ZM10.36 14.4644V16.9826H12.6845V14.4644H10.36Z" fill="#555B6C" mask="url(#path-7-inside-3_79_676)"/>
<mask id="path-9-inside-4_79_676" fill="white">
<path d="M4.74233 14.2707C4.42464 14.2707 4.16119 14.0072 4.16119 13.6896V10.5902C4.16119 10.2725 4.42464 10.009 4.74233 10.009C5.06002 10.009 5.32346 10.2725 5.32346 10.5902V13.6896C5.32346 14.0072 5.06002 14.2707 4.74233 14.2707Z"/>
</mask>
<path d="M4.74233 13.1084C5.06655 13.1084 5.32346 13.3653 5.32346 13.6896H2.99892C2.99892 14.6491 3.78274 15.433 4.74233 15.433V13.1084ZM5.32346 13.6896V10.5902H2.99892V13.6896H5.32346ZM5.32346 10.5902C5.32346 10.9144 5.06655 11.1713 4.74233 11.1713V8.84676C3.78274 8.84676 2.99892 9.63058 2.99892 10.5902H5.32346ZM4.74233 11.1713C4.41811 11.1713 4.16119 10.9144 4.16119 10.5902H6.48573C6.48573 9.63058 5.70192 8.84676 4.74233 8.84676V11.1713ZM4.16119 10.5902V13.6896H6.48573V10.5902H4.16119ZM4.16119 13.6896C4.16119 13.3653 4.41811 13.1084 4.74233 13.1084V15.433C5.70192 15.433 6.48573 14.6491 6.48573 13.6896H4.16119Z" fill="#555B6C" mask="url(#path-9-inside-4_79_676)"/>
<path d="M8.42457 16.981C8.58344 17.1398 8.76574 17.2598 8.96561 17.3484C8.74589 17.2529 8.56599 17.1291 8.42121 16.9843C8.27643 16.8396 8.15268 16.6597 8.05717 16.4399C8.1457 16.6398 8.2657 16.8221 8.42457 16.981ZM8.42457 2.64967C8.2657 2.80854 8.14571 2.99083 8.05717 3.1907C8.15268 2.97098 8.27643 2.79109 8.42121 2.64631C8.56599 2.50153 8.74589 2.37778 8.9656 2.28227C8.76573 2.3708 8.58344 2.4908 8.42457 2.64967ZM16.5571 2.64967C16.3982 2.4908 16.2159 2.3708 16.0161 2.28227C16.2358 2.37778 16.4157 2.50152 16.5605 2.64631C16.7052 2.79109 16.829 2.97098 16.9245 3.1907C16.836 2.99083 16.716 2.80854 16.5571 2.64967ZM16.5571 16.981C16.716 16.8221 16.836 16.6398 16.9245 16.4399C16.829 16.6597 16.7052 16.8396 16.5605 16.9843C16.4157 17.1291 16.2358 17.2529 16.0161 17.3484C16.2159 17.2598 16.3982 17.1398 16.5571 16.981Z" stroke="#555B6C" stroke-width="1.16227"/>
</svg>
